<?xml version="1.0" encoding="UTF-8" standalone="no"?>
<!-- Created with Inkscape (http://www.inkscape.org/) -->

<svg
   width="209.64215mm"
   height="143.16878mm"
   viewBox="0 0 209.64215 143.16878"
   version="1.1"
   id="svg1"
   inkscape:version="1.3 (0e150ed, 2023-07-21)"
   sodipodi:docname="birds-logo.svg"
   xmlns:inkscape="http://www.inkscape.org/namespaces/inkscape"
   xmlns:sodipodi="http://sodipodi.sourceforge.net/DTD/sodipodi-0.dtd"
   xmlns="http://www.w3.org/2000/svg"
   xmlns:svg="http://www.w3.org/2000/svg">
  <sodipodi:namedview
     id="namedview1"
     pagecolor="#ffffff"
     bordercolor="#000000"
     borderopacity="0.25"
     inkscape:showpageshadow="2"
     inkscape:pageopacity="0.0"
     inkscape:pagecheckerboard="0"
     inkscape:deskcolor="#d1d1d1"
     inkscape:document-units="mm"
     inkscape:zoom="0.2102413"
     inkscape:cx="397.16269"
     inkscape:cy="313.925"
     inkscape:window-width="1312"
     inkscape:window-height="785"
     inkscape:window-x="0"
     inkscape:window-y="25"
     inkscape:window-maximized="0"
     inkscape:current-layer="layer1" />
  <defs
     id="defs1" />
  <g
     inkscape:label="Layer 1"
     inkscape:groupmode="layer"
     id="layer1"
     transform="translate(-0.36251271,-64.941271)">
    <g
       id="g18"
       transform="matrix(0.90719445,0,0,0.75602201,-647.12798,160.0352)">
      <path
         class="st1"
         d="m 822.47625,26.65764 c -1.4,-1.9 -10.2,-5.5 -13.6,-5.5 -1.7,0 -6.5,1.1 -7.4,1.4 -0.9,0.3 -3.2,0.8 -3.2,0.8 l 1.4,0.6 -2.8,0.8 1.7,0.1 -2.2,0.9 1.3,0.1 c 0,0 -1.7,1.7 -0.7,7.5 0.2,1.4 -8.8,-18.1 14.2,-36.7999995 0,0 3.1,-6 -16.2,-22.7000005 0,0 3.7,-5.7 2.9,-11.9 -0.9,-6.2 -40.5,-55.1 -45.6,-61.7 -5.1,-6.6 -8.2,-6.6 -8.2,-6.6 0,0 2,9.4 20.7,30.4 0,0 -31.4,-31.2 -34,-28.6 0,0 2.6,8.2 22.9,27.2 0,0 -22.4,-19 -27.8,-17.9 0,0 3.4,7.9 22.9,21 0,0 -17,-8.8 -22.9,-7.6 0,0 2.5,3.7 6.5,5.4 4,1.7 8.8,4.8 9.6,6.2 0.8,1.4 -0.9,-1.4 -0.9,-1.4 0,0 -5.9,-0.3 -7.4,-0.3 -1.5,0 2.8,4.8 4.2,5.4 1.4,0.6 3.1,2.6 3.7,3.7 1,1.8 1.7,2.7 1.7,2.7 l -2.4,0.1 c 0,0 2.3,3.4 3,3.8 0,0 -1.3,0.7 -1.1,1.6 0.1,0.9 3.3,3.7 3.4,4.5 0.1,0.9 -0.3,2.3 0.7,3 1,0.7 -0.1,2.3 0.7,3 0.9,0.7 1,2.8 -0.1,4.7 -1.1,1.8 -0.6,3.1 -0.6,3.1 0,0 -1.6,3.4 -0.3,4.1 1.3,0.7 -2.6,5.1 -3.4,7.8 -0.9,2.7 -6,19.5000005 -6.1,21.7000005 -0.1,2.09999996 0.4,3.39999996 7,21.4999995 1.2,3.4 10.3,19.3 1.1,24.1 l -9.8,5.1 c 0,0 -14.2,0.3 -15.3,0.6 -1.1,0.3 6.7,1.3 6.7,1.3 0,0 -10.2,1.6 -11.1,1.8 -0.9,0.2 -2.4,1.6 0,1.4 2.4,-0.2 -5.4,1.6 0,1.6 5.4,0 -5.4,2.3 1.1,1.7 6.5,-0.6 4.2,2.3 19.4,0.1 2.5,-0.4 17.2,3.4 26.6,3.7 9.4,0.3 15.1,0 24.1,-1.7 9.1,-1.7 28.3,-2.8 31.7,-4.8 3.4,-2 6.2,-2 7.4,-6.8 l 1.1,-4.8 c 0,0 8.3,4 9.1,4.2 0.8,0.2 13.4,4.7 18.4,6 5,1.3 13.6,2.4 13.6,2.4 0,0 5,0.8 5.1,1.5 0.1,0.7 2.1,-2.4 -2.1,-4.5 -4.2,-2.1 -48.7,-25 -48.7,-25 z"
         id="path17"
         style="fill:#00bbd6" />
      <path
         class="st1"
         d="m 879.28641,-119.74236 -1,0.4 c 0,0 0.7,0.7 0.8,1.6 0.1,0.9 0.1,1.6 0.9,2.5 0.8,0.9 0.5,2.9 3.9,6.6 0,0 -8.3,-1.6 -9.5,-1.7 -1.3,-0.1 -22.3,8.6 -23.6,9.2 -1.3,0.6 -18.1,10.9 -26.5,16.3 0,0 -7.2,1.9 -10.7,4.2 0,0 -1.5,1.6 -1.1,2 0.4,0.4 4.5,-1.9 5.5,-1.9 0,0 -1.6,1 -1.7,1.4 -0.1,0.4 1.5,1.6 2.5,1.4 0,0 5.8,-2.4 9.1,-2.7 0,0 2.9,1.1 8.6,1 5.7,-0.1 15.7,-1.2 15.7,-1.2 0,0 11.2,7.8 12,8.3 0.9,0.4 6,3.2 7,4.6 1,1.4 3.6,7.6 5.9,8.7 0,0 1.4,0.3 2.2,0 0,0 -0.8,0.6 1.6,2.1 0,0 -1.3,6.4 2,9.7 l 4.2,-8.4 c 0,0 -0.8,9 2.2,12.5 0,0 1.2,-1.6 2.4,-5.6 0,0 0.5,0.8 1.2,0.6 0,0 -2.2,6.1 0.8,10 0,0 2,0.6 5,-9.5 0,0 -2.6,10.8 1,15.6 0,0 1.9,1.1 4.3,-14.3 0,0 -0.5,10.6 2.6,13.8 0,0 2,0.4 2.7,-14.6 0,0 -0.4,6.9 3.4,9.4 0,0 2.1,-0.8 0.6,-10.8 0,0 2.7,-4.4 -2,-20.6 0,0 -0.8,-1.7 -0.2,-4.5 0.6,-2.8 0.4,-8.8 -2.4,-10.7 -2.8,-1.9 -19,-8.1 -19,-8.1 0,0 11.9,-7.6 13.3,-9.1 0.8,-0.8 3.2,-3.4 3.8,-7.4 0.1,-0.8 -0.1,-1.2 -0.1,-1.2 0,0 5.1,0.3 7.4,0.6 2.3,0.3 26.9,1.5 26.9,1.5 0,0 3.4,0.4 3.4,1.1 0,0 1.5,-2.4 -1.1,-3.4 -2.6,-1 -17.9,-4.4 -19.7,-4.9 -1.8,-0.5 -20.2,-6 -20.2,-6 0,0 -5.8,-2.1 -6.8,-2.5 -1.4,-0.5 -4.5,-0.5 -6.8,0 -1.1,0.2 -4.3,1.7 -4.9,1.7 -0.6,0 -4.1,0.9 -6.3,1.3 -0.1,0 1.1,0.9 0.7,1 z"
         id="path18"
         style="fill:#00bbd6" />
    </g>
  </g>
</svg>
