<?xml version="1.0" encoding="UTF-8" standalone="no"?>
<!-- Generator: Adobe Illustrator 28.0.0, SVG Export Plug-In . SVG Version: 6.00 Build 0)  -->

<svg
   version="1.1"
   id="Layer_1"
   x="0px"
   y="0px"
   viewBox="0 0 545 571.6"
   style="enable-background:new 0 0 545 571.6;"
   xml:space="preserve"
   sodipodi:docname="baytobeach-logo.svg"
   inkscape:version="1.3 (0e150ed, 2023-07-21)"
   xmlns:inkscape="http://www.inkscape.org/namespaces/inkscape"
   xmlns:sodipodi="http://sodipodi.sourceforge.net/DTD/sodipodi-0.dtd"
   xmlns="http://www.w3.org/2000/svg"
   xmlns:svg="http://www.w3.org/2000/svg"><defs
   id="defs17" /><sodipodi:namedview
   id="namedview17"
   pagecolor="#ffffff"
   bordercolor="#000000"
   borderopacity="0.25"
   inkscape:showpageshadow="2"
   inkscape:pageopacity="0.0"
   inkscape:pagecheckerboard="0"
   inkscape:deskcolor="#d1d1d1"
   inkscape:zoom="0.41287615"
   inkscape:cx="230.09321"
   inkscape:cy="267.63474"
   inkscape:window-width="1312"
   inkscape:window-height="896"
   inkscape:window-x="0"
   inkscape:window-y="25"
   inkscape:window-maximized="0"
   inkscape:current-layer="Layer_1" />&#10;<style
   type="text/css"
   id="style1">&#10;	.st0{fill:none;stroke:#00BBD6;stroke-width:3;stroke-miterlimit:10;}&#10;	.st1{fill:#00BBD6;}&#10;	.st2{font-family:'HerlynaSansSerif';}&#10;	.st3{font-size:58.88px;}&#10;</style>&#10;<circle
   class="st0"
   cx="272.5"
   cy="289.8"
   r="248.8"
   id="circle1" />&#10;<path
   class="st1"
   d="M231.5,339.1c-1.4-1.9-10.2-5.5-13.6-5.5c-1.7,0-6.5,1.1-7.4,1.4c-0.9,0.3-3.2,0.8-3.2,0.8l1.4,0.6l-2.8,0.8  l1.7,0.1l-2.2,0.9l1.3,0.1c0,0-1.7,1.7-0.7,7.5c0.2,1.4-8.8-18.1,14.2-36.8c0,0,3.1-6-16.2-22.7c0,0,3.7-5.7,2.9-11.9  c-0.9-6.2-40.5-55.1-45.6-61.7s-8.2-6.6-8.2-6.6s2,9.4,20.7,30.4c0,0-31.4-31.2-34-28.6c0,0,2.6,8.2,22.9,27.2  c0,0-22.4-19-27.8-17.9c0,0,3.4,7.9,22.9,21c0,0-17-8.8-22.9-7.6c0,0,2.5,3.7,6.5,5.4s8.8,4.8,9.6,6.2s-0.9-1.4-0.9-1.4  s-5.9-0.3-7.4-0.3s2.8,4.8,4.2,5.4c1.4,0.6,3.1,2.6,3.7,3.7c1,1.8,1.7,2.7,1.7,2.7l-2.4,0.1c0,0,2.3,3.4,3,3.8c0,0-1.3,0.7-1.1,1.6  c0.1,0.9,3.3,3.7,3.4,4.5c0.1,0.9-0.3,2.3,0.7,3c1,0.7-0.1,2.3,0.7,3c0.9,0.7,1,2.8-0.1,4.7c-1.1,1.8-0.6,3.1-0.6,3.1  s-1.6,3.4-0.3,4.1c1.3,0.7-2.6,5.1-3.4,7.8c-0.9,2.7-6,19.5-6.1,21.7c-0.1,2.1,0.4,3.4,7,21.5c1.2,3.4,10.3,19.3,1.1,24.1l-9.8,5.1  c0,0-14.2,0.3-15.3,0.6c-1.1,0.3,6.7,1.3,6.7,1.3s-10.2,1.6-11.1,1.8s-2.4,1.6,0,1.4s-5.4,1.6,0,1.6c5.4,0-5.4,2.3,1.1,1.7  c6.5-0.6,4.2,2.3,19.4,0.1c2.5-0.4,17.2,3.4,26.6,3.7c9.4,0.3,15.1,0,24.1-1.7c9.1-1.7,28.3-2.8,31.7-4.8s6.2-2,7.4-6.8l1.1-4.8  c0,0,8.3,4,9.1,4.2s13.4,4.7,18.4,6s13.6,2.4,13.6,2.4s5,0.8,5.1,1.5s2.1-2.4-2.1-4.5S231.5,339.1,231.5,339.1L231.5,339.1z"
   id="path1" />&#10;<path
   class="st1"
   d="M276.2,192.7l-1,0.4c0,0,0.7,0.7,0.8,1.6c0.1,0.9,0.1,1.6,0.9,2.5s0.5,2.9,3.9,6.6c0,0-8.3-1.6-9.5-1.7  c-1.3-0.1-22.3,8.6-23.6,9.2s-18.1,10.9-26.5,16.3c0,0-7.2,1.9-10.7,4.2c0,0-1.5,1.6-1.1,2s4.5-1.9,5.5-1.9c0,0-1.6,1-1.7,1.4  c-0.1,0.4,1.5,1.6,2.5,1.4c0,0,5.8-2.4,9.1-2.7c0,0,2.9,1.1,8.6,1c5.7-0.1,15.7-1.2,15.7-1.2s11.2,7.8,12,8.3c0.9,0.4,6,3.2,7,4.6  s3.6,7.6,5.9,8.7c0,0,1.4,0.3,2.2,0c0,0-0.8,0.6,1.6,2.1c0,0-1.3,6.4,2,9.7l4.2-8.4c0,0-0.8,9,2.2,12.5c0,0,1.2-1.6,2.4-5.6  c0,0,0.5,0.8,1.2,0.6c0,0-2.2,6.1,0.8,10c0,0,2,0.6,5-9.5c0,0-2.6,10.8,1,15.6c0,0,1.9,1.1,4.3-14.3c0,0-0.5,10.6,2.6,13.8  c0,0,2,0.4,2.7-14.6c0,0-0.4,6.9,3.4,9.4c0,0,2.1-0.8,0.6-10.8c0,0,2.7-4.4-2-20.6c0,0-0.8-1.7-0.2-4.5s0.4-8.8-2.4-10.7  c-2.8-1.9-19-8.1-19-8.1s11.9-7.6,13.3-9.1c0.8-0.8,3.2-3.4,3.8-7.4c0.1-0.8-0.1-1.2-0.1-1.2s5.1,0.3,7.4,0.6s26.9,1.5,26.9,1.5  s3.4,0.4,3.4,1.1c0,0,1.5-2.4-1.1-3.4s-17.9-4.4-19.7-4.9s-20.2-6-20.2-6s-5.8-2.1-6.8-2.5c-1.4-0.5-4.5-0.5-6.8,0  c-1.1,0.2-4.3,1.7-4.9,1.7s-4.1,0.9-6.3,1.3C275.4,191.7,276.6,192.6,276.2,192.7L276.2,192.7z"
   id="path2" />&#10;<path
   class="st1"
   d="M89.4,460.5c0,0,2.1-4.3,5.9-1.8c19.5,13.2,39.2,14.7,58.5,16.4c28.3,2.5,45.6-6.2,47.2-6.8  c7.7-2.7,25.2-13.8,35.1-27c9.9-13.2,16.6-41.3,29.1-38.2c12,0.6,45.9,6.8,50.7,5.9c6.4-1.1,17.1-15.2,25.9-26.5  c8.3-12.4,13.6-30.6,25.2-38.9c1.6-1.1,5.2-1.2,6.9-0.2c19.4,12.3,30.1,10.2,51.7,9.8c18.5-0.3,33-9.9,43.2-25.5  c2.7-4.1,5.4-8.3,7.9-12.5c2.1-3.4,4-3.9,7.3-1c6.5,5.7,8.5,6.6,17.3,9.3c17.7,2.6,7.3-17.1,18.7-14.1c-4.9,35-20,198.8-217.6,226.1  C205.6,549,128.2,508.3,89.4,460.5L89.4,460.5z M319.8,517c8.2-6,25.8-8.2,32.4-10.8c2.9-1.2,6.1-2.1,10.2-4  c3-1.4,11.5-6.7,15.7-9.6c11.5-8.7,15.1-13.2,25.2-23.9c8.5-9,17.4-17.1,24.9-26.9c8.4-10,15.7-17.6,23.3-30.9  c5.4-8.3,4.5-17.4,3.7-19.7c-1.3-3.6-2-5.2-3-2.9c-1,11.6-1.9,15.9-10.6,27c-14.8,22.3-48.1,61.8-67.3,71.3  c-2.9,2.1-24.2,8.1-29.7,5.6c-0.8-0.4,13.3-5.4,18.9-8.5c12.2-4.9,22.7-16.3,31.4-24.4c12.1-14.9,31-35.7,35.9-50.1  c1-2.4-0.3-5.1-2-6.9c-2.9-2.9-7.6-2.2-4.7,2.5c2.3,3.8-1.6,10.3-2.6,12.3c-6.6,12.1-9.3,12.6-18.2,25.3  c-13.3,18.9-43.9,38.8-65.5,47.3c-1.7,0.7-21,4.3-22.4,2c-1.3-13.7-4.3-19.9-6.8-23.9c-0.3-0.4,0.2-0.9,0.7-0.6  c2.6,1.9,23.4-0.5,25-0.6c4.9-0.3,18.6-4.6,27.5-10c18.3-11.3,28-23,34.2-37.3c0.4-1,1.1-5.1-2.6-7c0.7,4-6.3,13.3-9.9,17.2  c-12.6,13.5-26.5,24.4-45.5,27.6c-17.5,3-25.6,1.5-43.5,1.5c-4.9,0-10-0.1-14.5,2c-11.3,9.5-14.2,12.6-19,16  c-32.7,18.3-62,24.4-95.4,18.2c-13.1-2.4-29.1-10.8-34.6-13.1c-1.7-0.7-6.7-3.3-8.4-4.1c-0.3,0.5,1.4,1.8,2.5,3  c3.7,2.9,3.7,2.7,9.3,5.3c11.3,5.7,15.1,8.3,33.5,12.2c13.9,2.9,18.9,3,34.9,2.5c26.9-3.6,32.1-9.5,45.2-12.4  c1.8-0.4,4.5-0.4,5.4,0.7c1,1.1,0.7,3.7,0.4,5.6c-0.2,1.7-1.2,3.2-2,5.3c1.9,0.1,2.9,0.3,3.9,0.2c13.7-1.2,22.7-11.2,31-22.2  c2-2.7,4-5.6,6.4-8c2.2-2.2,4.5-1.5,6.8,2c4.4,6.8,2.3,22.7-2.3,29.5c-3.1,4.7-5.6,9.8-9.2,16c4.6,0.9,10.1-0.8,13.7-2.6  c3.4-1.7,20.3-16.5,35.8-14.8c8.9,1-14.3,0-32.7,22.3C303.6,524,309.1,525.3,319.8,517L319.8,517z M479.1,410.9  c6.5-11.1,19.7-33.4,18-46c-0.3-8.4-7.7-8.1-16.2-8.4c-7.2-0.2-9.1,3.8-11.5,5.3c-1.2,0.8-2.4,2.1-4.6,4.2c16.9,1.1,21,6,17.8,20.9  c-1.4,6.4-4.2,11.6-7,17.6c-9.8,17.7-24.5,34.7-36.1,52.8C439.6,457.3,449.4,451.6,479.1,410.9L479.1,410.9z M315.8,415.7  c-11.7-0.9-22-2-32.2-2.5c-5.6-0.3-11.2-1.7-16.7-1.2c-3.7,0.3-6.1,4.2-7.4,8c-2.6,7.8-10.2,16.5-12.5,19.4  c-6.6,9.5-20.6,29.4-30.6,35.2c-4.4,2.5-9.9,4-14.8,6c-0.2,0.5-0.3,1,0.6,1.4c3.5-1.1,7-2.2,10.5-3.4c15.9-5.3,26.2-25.4,35-35.4  c3.7-3.5,6.7-7.7,10.3-11.4c1.2-1.2,5.3-5.3,6.8-6.2c1.8,1.7,0.1,6.1,0.1,8.4c-0.1,3.8,5.1,7.4,5.1,7.4S264.4,411.2,315.8,415.7  L315.8,415.7z M372.7,354.5c-4.2-2.8-6.8-1.4-8.6,2.7c-1.7,3.9-3.4,7.8-5.6,11.5c-15.7,26.3-32.9,51.5-59.3,69.1  C306.7,437.8,351.7,404.2,372.7,354.5z M288.7,492.3c-8.9,12.4-20.7,26.2-47.4,26.8c-15.3,0.3-10.9-0.3-27.3-1.2  c-0.1,0.6,6.1,2.8,9.8,3.5c3.9,1.3,6.6,1.5,10.6,1.9c9.1,0.8,13.1,1.2,20.2,0C266.7,521.2,282.9,502.7,288.7,492.3L288.7,492.3z   M421.1,371.9l18.5-12.6c-11.3,3.1-18.1,7.2-32.2,3.5c-5-0.7-9.2-1.2-12.4-1.4c-3.7-0.2-3.9,3.4-5,11.9c-0.7,8.6-3.8,16.1-8.6,22.7  c-6.8,9.4-14.3,18.2-21.7,27.1c-3.2,3.9-7,7.3-10.5,11c0.4,0.4,0.7,0.7,1,1.1c2.9-2.3,5.8-4.5,8.7-6.8c10.3-8.3,20-17.1,26-29.1  c2.3-4.5,3.7-9.5,5.7-14.2c0.7-1.5,1.5-4.4,3.3-4.1c1.3,1.2,1.8,0.9,2.8,2.3c1,1.4-1,4.8,0.2,7.4c3-8.5,12.8-3.2,17.7-4.5  c3.5-5.2,5.1-17.2,21.9-23.4c0,0,3.2-0.2,3.1-3.4L421.1,371.9z M464.2,338c1.2,5.9-11.2,19-20.1,23.6c0,0,46.3-8.8,21.2-26.2  C464.3,334.6,463.9,336.8,464.2,338L464.2,338z"
   id="path3" />&#10;<text
   transform="matrix(0.1345 -0.9909 0.9909 0.1345 86.305 290.65)"
   class="st1 st2 st3"
   id="text3">B</text>&#10;<text
   transform="matrix(0.2944 -0.9557 0.9557 0.2944 90.735 258.2697)"
   class="st1 st2 st3"
   id="text4">A</text>&#10;<text
   transform="matrix(0.4234 -0.9059 0.9059 0.4234 98.6448 232.1094)"
   class="st1 st2 st3"
   id="text5">Y</text>&#10;<text
   transform="matrix(0.7123 -0.7019 0.7019 0.7123 133.445 174.5701)"
   class="st1 st2 st3"
   id="text6">T</text>&#10;<text
   transform="matrix(0.8103 -0.5859 0.5859 0.8103 151.0148 156.7802)"
   class="st1 st2 st3"
   id="text7">O</text>&#10;<text
   transform="matrix(0.9716 -0.2367 0.2367 0.9716 213.475 120.74)"
   class="st1 st2 st3"
   id="text8">B</text>&#10;<text
   transform="matrix(0.9967 -8.159061e-02 8.159061e-02 0.9967 244.015 113.26)"
   class="st1 st2 st3"
   id="text9">E</text>&#10;<text
   transform="matrix(0.9966 8.246034e-02 -8.246034e-02 0.9966 274.525 110.79)"
   class="st1 st2 st3"
   id="text10">A</text>&#10;<text
   transform="matrix(0.9714 0.2373 -0.2373 0.9714 303.9649 113.13)"
   class="st1 st2 st3"
   id="text11">C</text>&#10;<text
   transform="matrix(0.9175 0.3976 -0.3976 0.9175 332.495 119.7101)"
   class="st1 st2 st3"
   id="text12">H</text>&#10;<text
   transform="matrix(0.7708 0.637 -0.637 0.7708 381.9447 144.4599)"
   class="st1 st2 st3"
   id="text13">P</text>&#10;<text
   transform="matrix(0.6521 0.7581 -0.7581 0.6521 405.6552 163.9001)"
   class="st1 st2 st3"
   id="text14">O</text>&#10;<text
   transform="matrix(0.5203 0.854 -0.854 0.5203 426.0251 187.32)"
   class="st1 st2 st3"
   id="text15">O</text>&#10;<text
   transform="matrix(0.389 0.9213 -0.9213 0.389 441.9359 213.4499)"
   class="st1 st2 st3"
   id="text16">L</text>&#10;<text
   transform="matrix(0.2372 0.9715 -0.9715 0.2372 452.9357 239.16)"
   class="st1 st2 st3"
   id="text17">S</text>&#10;</svg>
