<?xml version="1.0" encoding="UTF-8" standalone="no"?>
<!-- Created with Inkscape (http://www.inkscape.org/) -->

<svg
   width="63.975281mm"
   height="50.794025mm"
   viewBox="0 0 63.975281 50.794025"
   version="1.1"
   id="svg1"
   inkscape:version="1.3 (0e150ed, 2023-07-21)"
   sodipodi:docname="bird-r.svg"
   xmlns:inkscape="http://www.inkscape.org/namespaces/inkscape"
   xmlns:sodipodi="http://sodipodi.sourceforge.net/DTD/sodipodi-0.dtd"
   xmlns="http://www.w3.org/2000/svg"
   xmlns:svg="http://www.w3.org/2000/svg">
  <sodipodi:namedview
     id="namedview1"
     pagecolor="#ffffff"
     bordercolor="#000000"
     borderopacity="0.25"
     inkscape:showpageshadow="2"
     inkscape:pageopacity="0.0"
     inkscape:pagecheckerboard="0"
     inkscape:deskcolor="#d1d1d1"
     inkscape:document-units="mm"
     inkscape:zoom="0.2102413"
     inkscape:cx="64.211931"
     inkscape:cy="47.564393"
     inkscape:window-width="1312"
     inkscape:window-height="449"
     inkscape:window-x="0"
     inkscape:window-y="25"
     inkscape:window-maximized="0"
     inkscape:current-layer="layer1" />
  <defs
     id="defs1" />
  <g
     inkscape:label="Layer 1"
     inkscape:groupmode="layer"
     id="layer1"
     transform="translate(-87.577076,-136.26041)">
    <path
       class="st1"
       d="m 117.98107,143.46823 -0.4547,0.19876 c 0,0 0.31828,0.34783 0.36375,0.79502 0.0456,0.44722 0.0456,0.79504 0.40921,1.24224 0.36376,0.44722 0.22736,1.44099 1.7733,3.27951 0,0 -3.77391,-0.79503 -4.31953,-0.84472 -0.5911,-0.0497 -10.13954,4.2733 -10.73064,4.57144 -0.59109,0.29813 -8.229853,5.41615 -12.049232,8.09939 0,0 -3.273752,0.94408 -4.865158,2.08695 0,0 -0.682032,0.79503 -0.500157,0.99378 0.181875,0.19877 2.046096,-0.94411 2.500782,-0.94411 0,0 -0.7275,0.49691 -0.772968,0.69567 -0.04547,0.19874 0.682032,0.79502 1.136719,0.69565 0,0 2.637189,-1.19254 4.137659,-1.34162 0,0 1.318595,0.54658 3.910316,0.4969 2.591719,-0.0497 7.138599,-0.59627 7.138599,-0.59627 0,0 5.0925,3.87578 5.45626,4.12423 0.4092,0.19874 2.72812,1.59004 3.18281,2.28571 0.45468,0.69565 1.63687,3.77639 2.68265,4.32299 0,0 0.63657,0.14912 1.00033,0 0,0 -0.36376,0.29813 0.72749,1.04346 0,0 -0.5911,3.18013 0.90938,4.81988 l 1.90969,-4.17391 c 0,0 -0.36375,4.47206 1.00031,6.21118 0,0 0.54562,-0.79502 1.09125,-2.78261 0,0 0.22734,0.39752 0.54563,0.29813 0,0 -1.00031,3.03107 0.36375,4.96896 0,0 0.90936,0.29814 2.27343,-4.72049 0,0 -1.18217,5.36645 0.4547,7.75155 0,0 0.86389,0.54658 1.95514,-7.10561 0,0 -0.22734,5.2671 1.18219,6.85715 0,0 0.90939,0.19877 1.22767,-7.25465 0,0 -0.18188,3.42856 1.54594,4.6708 0,0 0.95483,-0.39752 0.27281,-5.36646 0,0 1.22764,-2.18634 -0.90938,-10.23604 0,0 -0.36374,-0.84471 -0.0909,-2.23601 0.27281,-1.3913 0.18186,-4.37267 -1.09125,-5.31677 -1.27314,-0.94411 -8.63908,-4.02486 -8.63908,-4.02486 0,0 5.41078,-3.77639 6.04735,-4.52174 0.36375,-0.39751 1.45501,-1.68944 1.72782,-3.67701 0.0455,-0.39752 -0.0455,-0.59628 -0.0455,-0.59628 0,0 2.3189,0.14912 3.3647,0.29815 1.04578,0.1491 12.2311,0.74532 12.2311,0.74532 0,0 1.54593,0.19878 1.54593,0.54659 0,0 0.68205,-1.19255 -0.50015,-1.68944 -1.1822,-0.49689 -8.13891,-2.18634 -8.95735,-2.43479 -0.81843,-0.24844 -9.1847,-2.98136 -9.1847,-2.98136 0,0 -2.63718,-1.04348 -3.09187,-1.24225 -0.63657,-0.24844 -2.04611,-0.24844 -3.09188,0 -0.50016,0.0994 -1.95516,0.84474 -2.22798,0.84474 -0.27281,0 -1.86421,0.4472 -2.86452,0.64595 -0.0455,0 0.50016,0.44721 0.31828,0.4969 z"
       id="path18"
       style="fill:#00bbd6;stroke-width:0.475322" />
  </g>
</svg>
