<?xml version="1.0" encoding="UTF-8" standalone="no"?>
<!-- Created with Inkscape (http://www.inkscape.org/) -->

<svg
   width="102.76937mm"
   height="101.97011mm"
   viewBox="0 0 102.76937 101.97011"
   version="1.1"
   id="svg1"
   inkscape:version="1.3 (0e150ed, 2023-07-21)"
   sodipodi:docname="bird-l.svg"
   xmlns:inkscape="http://www.inkscape.org/namespaces/inkscape"
   xmlns:sodipodi="http://sodipodi.sourceforge.net/DTD/sodipodi-0.dtd"
   xmlns="http://www.w3.org/2000/svg"
   xmlns:svg="http://www.w3.org/2000/svg">
  <sodipodi:namedview
     id="namedview1"
     pagecolor="#ffffff"
     bordercolor="#000000"
     borderopacity="0.25"
     inkscape:showpageshadow="2"
     inkscape:pageopacity="0.0"
     inkscape:pagecheckerboard="0"
     inkscape:deskcolor="#d1d1d1"
     inkscape:document-units="mm"
     inkscape:zoom="0.2102413"
     inkscape:cx="78.481249"
     inkscape:cy="304.41212"
     inkscape:window-width="1312"
     inkscape:window-height="805"
     inkscape:window-x="0"
     inkscape:window-y="25"
     inkscape:window-maximized="0"
     inkscape:current-layer="layer1" />
  <defs
     id="defs1" />
  <g
     inkscape:label="Layer 1"
     inkscape:groupmode="layer"
     id="layer1"
     transform="translate(-83.872915,-68.581079)">
    <path
       class="st1"
       d="m 153.67433,149.98433 c -0.89862,-1.16291 -6.54702,-3.36631 -8.72938,-3.36631 -1.09116,0 -4.17212,0.67325 -4.74978,0.85688 -0.57769,0.18368 -2.05398,0.48963 -2.05398,0.48963 l 0.89862,0.36724 -1.79724,0.48965 1.09117,0.0613 -1.4121,0.55084 0.83443,0.0613 c 0,0 -1.09116,1.04049 -0.44931,4.59043 0.12833,0.85686 -5.6484,-11.07821 9.11448,-22.52366 0,0 1.98978,-3.67233 -10.39822,-13.89366 0,0 2.37491,-3.48873 1.86143,-7.28346 -0.57769,-3.79476 -25.99554,-33.724294 -29.26905,-37.763862 -3.27352,-4.039569 -5.2633,-4.039569 -5.2633,-4.039569 0,0 1.28373,5.75334 13.28661,18.606511 0,0 -20.154562,-19.09614 -21.82341,-17.50481 0,0 1.668848,5.018873 14.69871,16.647925 0,0 -14.377779,-11.629052 -17.84385,-10.955795 0,0 2.182343,4.835245 14.69871,12.853171 0,0 -10.911706,-5.386083 -14.69871,-4.651616 0,0 1.604664,2.264587 4.172123,3.305101 2.56746,1.040491 5.648407,2.937868 6.161907,3.794731 0.51349,0.856886 -0.57768,-0.856863 -0.57768,-0.856863 0,0 -3.787005,-0.183674 -4.749803,-0.183674 -0.962797,0 1.797224,2.937867 2.695833,3.305101 0.89861,0.367233 1.98978,1.591353 2.3749,2.26461 0.64187,1.1017 1.09117,1.652539 1.09117,1.652539 l -1.54047,0.0613 c 0,0 1.47629,2.081005 1.92559,2.32582 0,0 -0.83442,0.428443 -0.70605,0.97928 0.0642,0.55086 2.11815,2.26461 2.18234,2.75427 0.0642,0.55083 -0.19255,1.40772 0.44931,1.83616 0.64186,0.42845 -0.0642,1.40773 0.4493,1.83617 0.57768,0.42844 0.64187,1.71375 -0.0642,2.87666 -0.70605,1.1017 -0.38512,1.89738 -0.38512,1.89738 0,0 -1.02698,2.08098 -0.19254,2.50942 0.83442,0.42844 -1.66885,3.12147 -2.18234,4.77404 -0.57768,1.65253 -3.851195,11.93507 -3.915381,13.28161 -0.06419,1.28531 0.256746,2.08098 4.493051,13.15919 0.77024,2.08099 6.61121,11.81269 0.70606,14.75055 l -6.290282,3.12148 c 0,0 -9.114482,0.18367 -9.820535,0.36723 -0.706052,0.18367 4.300495,0.79568 4.300495,0.79568 0,0 -6.547023,0.97928 -7.124701,1.1017 -0.577679,0.12237 -1.540476,0.97928 0,0.85688 1.540476,-0.12237 -3.466072,0.97928 0,0.97928 3.466071,0 -3.466072,1.40773 0.706052,1.04049 4.172123,-0.36723 2.695833,1.40773 12.452182,0.0613 1.604662,-0.24482 11.040079,2.08098 17.073609,2.26461 6.03353,0.18367 9.69215,0 15.46894,-1.04049 5.84098,-1.0405 18.16478,-1.71378 20.34712,-2.93787 2.18233,-1.22412 3.97957,-1.22412 4.74981,-4.16199 l 0.70604,-2.93787 c 0,0 5.32748,2.44822 5.84098,2.57064 0.51347,0.12237 8.60097,2.87666 11.81031,3.67233 3.20933,0.79568 8.72935,1.46894 8.72935,1.46894 0,0 3.20934,0.48965 3.27353,0.91809 0.0643,0.42842 1.3479,-1.46893 -1.34793,-2.75426 -2.69583,-1.28531 -31.25881,-15.30139 -31.25881,-15.30139 z"
       id="path17"
       style="fill:#00bbd6;stroke-width:0.626782" />
  </g>
</svg>
